<?xml version="1.0" encoding="utf-8"?>
<!-- Generator: Adobe Illustrator 24.2.1, SVG Export Plug-In . SVG Version: 6.00 Build 0)  -->
<svg version="1.1" id="Layer_1" xmlns="http://www.w3.org/2000/svg" xmlns:xlink="http://www.w3.org/1999/xlink" x="0px" y="0px"
	 viewBox="0 0 301.7 588" style="enable-background:new 0 0 301.7 588;" xml:space="preserve">
<style type="text/css">
	.st0{fill:#F3F3F3;enable-background:new    ;}
</style>
<path class="st0" d="M298,0h-3.3H7H3H0v1.5v6V581v7h7h287.7h6.3h0.7V0H298z M282.7,509.5l-8.6-13.9c-10.2-14.6-22.9-27.3-37.5-37.5
	c15.6-7.3,32.7-11.8,50.3-12.8h7.9v93C291.7,528.3,287.7,518.6,282.7,509.5z M208.5,314c-17.8,12.4-32.8,28.6-43.8,47.3
	c-5.7,9.8-10.3,20.2-13.7,30.9c-10-31.5-30.2-59.3-57.9-78.5c17.7-8.2,37.3-12.7,57.4-12.7C170.8,301,190.6,305.6,208.5,314z
	 M93.1,274.3c27.7-19.2,48-47,57.9-78.6c9.9,31.4,30.1,59.2,57.5,78.4c-17.6,8.3-37.3,13-58,13C130,287,110.5,282.4,93.1,274.3z
	 M170.7,380.1c19.2,27.6,47,47.9,78.5,57.8c-10.8,3.4-21.1,8-30.9,13.7c-18.8,11-34.9,26.1-47.3,43.9c-8.3-17.6-13-37.3-13-58
	C158,417.4,162.5,397.9,170.7,380.1z M178.3,366.1c10.9-17.8,26-33.2,44.2-44.5c17.8,11,33,26.1,44.3,44.3
	c-10.9,17.8-26,33.2-44.2,44.5C204.8,399.4,189.5,384.3,178.3,366.1z M195.8,294c32-10.1,59.4-30.6,78.2-57.6
	c8.4,17.9,13,37.7,13,58c0,20.1-4.5,39.6-12.7,57.4C255.1,324.3,227.3,304,195.8,294z M222.4,266.5c-18-11.2-33-26.4-43.9-44
	c11.2-18,26.4-32.9,44-43.9c18,11.2,32.9,26.4,43.8,44C255.3,240.3,240.2,255.4,222.4,266.5z M171,208.5c-8.4-17.9-13-37.6-13-58
	c0-20.5,4.6-40,12.7-57.4c19.2,27.7,47,48,78.6,57.9C217.9,160.9,190.2,181,171,208.5z M178.2,79c11.1-18,26.3-33.3,44.3-44.5
	C240.4,45.8,255.6,61,266.7,79c-10.9,17.8-25.9,33.1-44.1,44.5C204.8,112.4,189.5,97.3,178.2,79z M151,105.1
	C140.8,73,120.1,45.5,93,26.7c17.5-8.2,37-12.7,57.5-12.7c20.8,0,40.5,4.7,58.1,13C181.7,45.8,161.1,73.2,151,105.1z M123.8,79
	c-11.4,18.4-26.9,33.6-44.8,44.7C60.5,112.4,45.3,96.9,34.3,79C45.5,60.8,60.8,45.5,79,34.3C97.2,45.5,112.5,60.9,123.8,79z
	 M131.3,93.1c8.1,17.5,12.7,36.9,12.7,57.4c0,20.3-4.6,40.1-13,58c-12.4-17.8-28.6-32.8-47.3-43.8c-9.8-5.7-20.2-10.3-30.9-13.7
	C84.3,141,112.1,120.7,131.3,93.1z M123.4,222.4c-11,17.8-26.1,33.1-44.4,44.3c-18-11.1-33.3-26.3-44.5-44.2
	c11-17.7,26.1-33,44.3-44.3C96.7,189.2,112.1,204.2,123.4,222.4z M105.2,294c-31.5,10-59.3,30.2-78.5,57.9
	C18.5,334.2,14,314.6,14,294.5c0-20.4,4.6-40.1,13-58C45.9,263.4,73.2,283.9,105.2,294z M79.1,321.3c18.4,11.4,33.6,26.8,44.7,44.8
	C112.4,384.5,97,399.7,79,410.8C60.6,399.4,45.4,384,34.3,366C45.6,347.5,61.1,332.3,79.1,321.3z M131.3,380.1
	c8.2,17.7,12.7,37.3,12.7,57.4c0,20.7-4.7,40.4-13,58c-12.4-17.8-28.7-32.9-47.5-43.9c-9.7-5.7-20.1-10.3-30.8-13.6
	C84.3,428,112.1,407.7,131.3,380.1z M123.4,509.4c-11.2,18-26.4,33.2-44.4,44.3c-18-11.1-33.2-26.3-44.4-44.2
	c11-17.8,26.1-33,44.4-44.3C97,476.3,112.3,491.5,123.4,509.4z M151,482.9c10.1,32,30.7,59.3,57.6,78.1c-17.6,8.3-37.3,13-58.1,13
	c-20.5,0-40-4.6-57.5-12.7C120.1,542.5,140.8,515,151,482.9z M178.6,509.4c11.2-18,26.4-33,44-43.9c18,11.2,32.9,26.4,43.8,44
	c-11.1,17.8-26.1,32.8-43.9,43.9C204.7,542.3,189.6,527.2,178.6,509.4z M294.7,431c-39.4-0.7-58.1-13-58.1-13
	c17.8-12.4,32.8-28.6,43.8-47.3c6.1-10.4,10.9-21.4,14.3-32.9L294.7,431L294.7,431z M282.7,222.4l-8.6-13.9
	c-10.2-14.6-22.9-27.3-37.5-37.5c15.6-7.3,32.7-11.8,50.3-12.8h7.9v93C291.7,241.3,287.7,231.6,282.7,222.4z M294.7,143.5
	c-36-0.4-58.1-12.6-58.1-12.6c14.7-10.3,27.6-23.2,37.8-37.9l8.6-14c4.9-9,8.8-18.5,11.7-28.3V143.5z M286.8,7v7.2
	c-0.9,17.7-5.2,34.9-12.6,50.7c-10.2-14.7-23-27.6-37.8-37.9l-13.9-8.6c-8.4-4.6-17.3-8.4-26.6-11.4H286.8z M79,18.1l-14,8.6
	C50.1,37.1,37.1,50,26.8,64.9c-7.3-15.8-11.7-33-12.6-50.8V7h91C96,9.9,87.3,13.6,79,18.1z M18.1,78.9l8.6,14
	c10.2,14.8,23.1,27.8,38.2,38.3c-15.4,7.2-40.2,11.5-57.9,12.5v-91C9.9,61.8,13.6,70.6,18.1,78.9z M7,158.3
	c17.7,1,42.5,5.3,57.9,12.5c-15,10.3-27.7,23.2-37.9,37.8l-8.6,13.9C13.8,231,9.9,240,7,249.3V158.3z M64.9,418.3
	C47.2,426.5,27.6,431,7.5,431H7v-91.3C17,371.3,37.2,399.1,64.9,418.3z M7,445.2c17.6,0.9,42.1,5.1,58,12.5
	C50,468,37.2,481,27,495.6l-8.6,13.9C13.8,518.1,9.9,527,7,536.3V445.2z M14.1,581l0.2-7.2c1-17.7,5.4-34.7,12.8-50.4
	c10.3,14.8,23.2,27.6,38,37.8l14,8.6c8.3,4.5,17,8.2,26.1,11.1H14.1V581z M222.5,569.6l13.9-8.6c14.6-10.2,27.3-22.9,37.6-37.5
	c7.4,15.6,11.8,32.7,12.8,50.3v7.2h-90.9C205.2,578.1,214.1,574.2,222.5,569.6z"/>
</svg>
