<?xml version="1.0" encoding="utf-8"?>
<!-- Generator: Adobe Illustrator 24.2.1, SVG Export Plug-In . SVG Version: 6.00 Build 0)  -->
<svg version="1.1" id="Layer_1" xmlns="http://www.w3.org/2000/svg" xmlns:xlink="http://www.w3.org/1999/xlink" x="0px" y="0px"
	 viewBox="0 0 100 125" style="enable-background:new 0 0 100 125;" xml:space="preserve">
<style type="text/css">
	.st0{fill:#7F1416;}
</style>
<g>
	<path class="st0" d="M50.4,120.3c-1.9,0-13.4-2-24.2-9.7c-12.7-9-20-22.1-21.5-39.1l0-0.1v-64L6,7.2c0.4,0,38.7-4.9,88.7,0l1.4,0.1
		l0,64.2c-3.5,37.1-32.9,46.4-45.4,48.7C50.6,120.3,50.5,120.3,50.4,120.3z M9.9,70.9c3.6,38.5,38.3,43.8,40.4,44.1
		c11.3-2,37.4-10.4,40.6-44.1l-0.1-58.8c-41.4-3.9-74.1-0.8-80.9,0V70.9z"/>
</g>
</svg>
